# xmcd
#
# Track frame offsets: 
#        150
#        16189
#        32980
#        49115
#        66696
#        85688
#        103795
#        126623
#        139043
#        153226
#        170859
#        188376
#        208505
#        226841
#
# Disc length: 3385 seconds
#
# Revision: 0
# Processed by: cddbd v1.5.2PL0 Copyright (c) Steve Scherf et al.
# Submitted via: ExactAudioCopy v1.3
#
DISCID=c00d370e
DTITLE=Various Artist - Soul Bag Sampler, Dec 2013
DYEAR=2013
DGENRE=Blues
TTITLE0=Eric Bibb - Let the mothers step up
TTITLE1=Gregory Porter - Musical genocide
TTITLE2=Laura Mvula - That's alright
TTITLE3=Booker T feat. Poncho Sanchez and Sheila E. - 66 Impala
TTITLE4=Candye Kane feat. Laura Chavez - Invisible woman
TTITLE5=James Cotton feat. Keb Mo - Mississippi mud
TTITLE6=The Campbell Brothers - It's alright now
TTITLE7=Trombone Shorty - Get the picture
TTITLE8=Harrison Kennedy - 2 bullets later
TTITLE9=Benoit Blue Boy and Franck Goldwasser - Y à des moments il faut 
TTITLE9=choisir
TTITLE10=Tao Ravao and Vincent Bucher - Rano Tano
TTITLE11=Eugene Hideaway Bridges - Under my roof
TTITLE12=Keith Dunn With Christian Rannenberg - Ashes in my whiskey
TTITLE13=Lurrie Bell - Blues in my soul
EXTD=
EXTT0=
EXTT1=
EXTT2=
EXTT3=
EXTT4=
EXTT5=
EXTT6=
EXTT7=
EXTT8=
EXTT9=
EXTT10=
EXTT11=
EXTT12=
EXTT13=
PLAYORDER=
